# xmcd CD database file
#
# Track frame offsets:
#	150
#	11600
#	26276
#	37918
#	52407
#	63292
#	76228
#	87844
#	99902
#	110810
#	122774
#	137183
#	148116
#	160272
#	172361
#	185748
#
# Disc length: 2637 seconds
#
# Revision: 1
# Processed by: cddbd v1.5.2PL0 Copyright (c) Steve Scherf et al.
# Submitted via: CDex 1.70beta2
#
DISCID=df0a4b10
DTITLE=Nat King Cole - Nat King Cole Sings and Plays [CD1)
DYEAR=1999
DGENRE=Jazz
TTITLE0=Makin' whoopee
TTITLE1=I'll string along with you
TTITLE2=Too marvelous for words
TTITLE3=Moonlight in Vermont
TTITLE4=When I take my sugar to tea
TTITLE5=I never had a chance
TTITLE6=Poor butterfly
TTITLE7=I think you get what I mean
TTITLE8=This is my night to dream
TTITLE9=Three little words
TTITLE10=There I've said it again
TTITLE11=(It's easy to see) The trouble with me is you
TTITLE12=How high the moon
TTITLE13=If you don't like my apples
TTITLE14=Laguna mood
TTITLE15=I'm a little ashamed
EXTD=YEAR: 1999
EXTT0=
EXTT1=
EXTT2=
EXTT3=
EXTT4=
EXTT5=
EXTT6=
EXTT7=
EXTT8=
EXTT9=
EXTT10=
EXTT11=
EXTT12=
EXTT13=
EXTT14=
EXTT15=
PLAYORDER=
